<svg width="1080" height="1080" viewBox="0 0 1080 1080" fill="none" xmlns="http://www.w3.org/2000/svg">
  <rect width="1080" height="1080" fill="#090909"/>
  <circle cx="187" cy="760" r="168" fill="#E5D6A8"/>
  <circle cx="885" cy="275" r="162" fill="#D9C88F"/>
  <circle cx="120" cy="930" r="58" fill="#7E5E48" fill-opacity="0.9"/>
  <circle cx="1010" cy="872" r="72" fill="#7F5C45" fill-opacity="0.72"/>
  <g opacity="0.9" fill="#B36A80">
    <path d="M169 265c18-18 50-19 69 0-12 19-35 41-52 57-15-11-30-38-17-57Z"/>
    <path d="M830 155c10-15 34-19 50-6-6 17-18 35-31 47-13-8-23-26-19-41Z"/>
    <path d="M924 766c19-18 48-15 66 3-13 18-37 35-57 46-14-11-21-29-9-49Z"/>
    <path d="M371 936c14-14 39-17 56-5-6 17-24 36-42 48-14-10-23-29-14-43Z"/>
  </g>
  <text x="540" y="108" fill="white" font-family="Arial, Helvetica, sans-serif" font-size="74" font-weight="800" text-anchor="middle">CLSU COLLEGIAN</text>
  <text x="540" y="142" fill="#DDD8CE" font-family="Arial, Helvetica, sans-serif" font-size="18" font-weight="600" text-anchor="middle">The Official Student Publication of Central Luzon State University</text>
  <text x="86" y="256" fill="white" font-family="Arial, Helvetica, sans-serif" font-size="78" font-weight="800">CASCARA</text>
  <text x="86" y="308" fill="#E8DFC9" font-family="Arial, Helvetica, sans-serif" font-size="36" font-weight="700">VOL. LXVII LITFOLIO ISSUE</text>
  <g transform="rotate(-11 385 603)">
    <rect x="268" y="344" width="256" height="394" rx="10" fill="url(#cover1)"/>
    <rect x="284" y="360" width="224" height="362" rx="8" stroke="#D7B16B" stroke-opacity="0.32" stroke-width="2"/>
    <path d="M341 432c34-19 75-20 111-6" stroke="#D7B16B" stroke-width="8" stroke-linecap="round" stroke-opacity="0.72"/>
    <path d="M323 483c56 1 110 12 154 30" stroke="#EFE8D2" stroke-width="3" stroke-linecap="round" stroke-opacity="0.68"/>
    <path d="M323 515c56 1 110 12 154 30" stroke="#EFE8D2" stroke-width="3" stroke-linecap="round" stroke-opacity="0.45"/>
    <path d="M323 547c56 1 110 12 154 30" stroke="#EFE8D2" stroke-width="3" stroke-linecap="round" stroke-opacity="0.38"/>
  </g>
  <g transform="rotate(7 643 585)">
    <rect x="525" y="308" width="316" height="470" rx="12" fill="url(#cover2)"/>
    <rect x="544" y="327" width="278" height="432" rx="10" stroke="#D7B16B" stroke-opacity="0.4" stroke-width="2"/>
    <path d="M616 433c34-70 101-96 137-75 28 16 32 46 22 73-17 47-65 84-123 120-34 22-63 39-92 54" stroke="#0E0E0E" stroke-width="10" stroke-linecap="round"/>
    <path d="M604 443c44-37 94-57 145-50" stroke="#E4C36A" stroke-width="9" stroke-linecap="round"/>
    <path d="M615 615c60-47 122-85 166-109" stroke="#E4C36A" stroke-width="7" stroke-linecap="round" stroke-opacity="0.8"/>
    <text x="682" y="555" fill="#18120C" font-family="Georgia, serif" font-size="44" font-style="italic" text-anchor="middle">CASCARA</text>
  </g>
  <text x="540" y="948" fill="white" font-family="Arial, Helvetica, sans-serif" font-size="120" font-weight="900" text-anchor="middle">OUT NOW!</text>
  <text x="540" y="1020" fill="#E5D6A8" font-family="Arial, Helvetica, sans-serif" font-size="28" font-weight="700" text-anchor="middle">clsucollegian@clsu.edu.ph   •   CLSUCollegian.Official   •   @clsukule</text>
  <defs>
    <linearGradient id="cover1" x1="268" y1="344" x2="524" y2="738" gradientUnits="userSpaceOnUse">
      <stop stop-color="#2B1F1D"/>
      <stop offset="1" stop-color="#0E0D12"/>
    </linearGradient>
    <linearGradient id="cover2" x1="525" y1="308" x2="841" y2="778" gradientUnits="userSpaceOnUse">
      <stop stop-color="#8A683D"/>
      <stop offset="0.55" stop-color="#3D2A1E"/>
      <stop offset="1" stop-color="#101214"/>
    </linearGradient>
  </defs>
</svg>
