<svg xmlns="http://www.w3.org/2000/svg" viewBox="0 0 1200 1500" role="img" aria-labelledby="title desc">
  <title id="title">Stars Shaped in Shared Space</title>
  <desc id="desc">Poster-style illustration for the CLSU Collegian feature story Stars Shaped in Shared Space.</desc>
  <defs>
    <linearGradient id="bg" x1="0" y1="0" x2="0" y2="1">
      <stop offset="0%" stop-color="#fff8ac"/>
      <stop offset="55%" stop-color="#ffd94d"/>
      <stop offset="100%" stop-color="#fff2a8"/>
    </linearGradient>
    <linearGradient id="flare" x1="0" y1="0" x2="1" y2="1">
      <stop offset="0%" stop-color="#ffffff" stop-opacity="0.7"/>
      <stop offset="100%" stop-color="#ffffff" stop-opacity="0"/>
    </linearGradient>
    <filter id="shadow" x="-20%" y="-20%" width="140%" height="140%">
      <feDropShadow dx="0" dy="18" stdDeviation="20" flood-color="#946100" flood-opacity="0.24"/>
    </filter>
  </defs>

  <rect width="1200" height="1500" fill="url(#bg)"/>
  <g opacity="0.22">
    <rect x="0" y="0" width="1200" height="1500" fill="url(#flare)"/>
    <circle cx="270" cy="260" r="220" fill="#fffad7"/>
    <circle cx="920" cy="280" r="250" fill="#fff6b3"/>
    <circle cx="760" cy="1090" r="280" fill="#fffad7"/>
  </g>

  <g fill="#d7423c" stroke="#3f6b1b" stroke-width="18" filter="url(#shadow)">
    <polygon points="190,115 247,276 420,276 280,377 334,540 190,437 46,540 100,377 -40,276 133,276"/>
    <polygon points="935,115 992,276 1165,276 1025,377 1079,540 935,437 791,540 845,377 705,276 878,276"/>
    <polygon points="540,370 605,551 798,551 642,666 701,852 540,741 379,852 438,666 282,551 475,551"/>
    <polygon points="945,760 1002,921 1175,921 1035,1022 1089,1185 945,1082 801,1185 855,1022 715,921 888,921"/>
    <polygon points="205,815 262,976 435,976 295,1077 349,1240 205,1137 61,1240 115,1077 -25,976 148,976"/>
  </g>

  <g opacity="0.55">
    <path d="M140 240 C310 130, 450 360, 570 470" stroke="#ffffff" stroke-width="20" stroke-linecap="round"/>
    <path d="M780 210 C900 160, 1010 310, 1095 420" stroke="#ffffff" stroke-width="18" stroke-linecap="round"/>
    <path d="M760 930 C920 850, 1020 1080, 1110 1220" stroke="#ffffff" stroke-width="16" stroke-linecap="round"/>
  </g>

  <g>
    <circle cx="200" cy="280" r="96" fill="#f4d1ca"/>
    <path d="M100 248 C138 165, 261 155, 300 250 L300 420 L100 420 Z" fill="#6a284f"/>
    <rect x="145" y="365" width="110" height="165" rx="55" fill="#101010"/>
    <circle cx="940" cy="290" r="88" fill="#f4d1ca"/>
    <path d="M840 250 C865 150, 1018 135, 1040 248 L1040 420 L840 420 Z" fill="#6b1d3a"/>
    <rect x="885" y="360" width="110" height="165" rx="55" fill="#111111"/>
    <circle cx="540" cy="640" r="118" fill="#f0c5bc"/>
    <path d="M414 614 C450 494, 630 494, 666 614 L666 844 L414 844 Z" fill="#c56c7d"/>
    <rect x="456" y="765" width="168" height="220" rx="84" fill="#f6e8de"/>
    <circle cx="930" cy="1010" r="100" fill="#f5cfca"/>
    <path d="M820 968 C855 842, 1002 846, 1038 972 L1038 1166 L820 1166 Z" fill="#f2efef"/>
    <rect x="865" y="1130" width="136" height="190" rx="68" fill="#95b1d2"/>
  </g>

  <g fill="#215c34">
    <rect x="108" y="1000" width="178" height="52" rx="26"/>
    <text x="197" y="1035" text-anchor="middle" fill="#ffe47d" font-size="28" font-family="Inter, Arial, sans-serif" font-weight="700" letter-spacing="2">FEATURES</text>

    <text x="112" y="1135" font-size="108" font-family="'Brush Script MT', 'Segoe Script', cursive">Stars</text>
    <text x="112" y="1225" font-size="84" font-family="Georgia, serif">shaped in</text>
    <text x="112" y="1338" font-size="118" font-family="'Brush Script MT', 'Segoe Script', cursive">Shared Space</text>

    <text x="125" y="1408" font-size="34" font-family="Inter, Arial, sans-serif">by Kryztelle Ashley Herrera</text>
  </g>
</svg>
